{
  "accessors": [
    {
      "bufferView": 2,
      "componentType": 5126,
      "count": 96,
      "max": [
        0.5,
        0.5,
        0.5
      ],
      "min": [
        -0.5,
        -0.5,
        -0.5
      ],
      "type": "VEC3"
    },
    {
      "bufferView": 2,
      "byteOffset": 1152,
      "componentType": 5126,
      "count": 96,
      "max": [
        1.0,
        1.0,
        1.0
      ],
      "min": [
        -1.0,
        -1.0,
        -1.0
      ],
      "type": "VEC3"
    },
    {
      "bufferView": 1,
      "componentType": 5126,
      "count": 96,
      "max": [
        1.0,
        1.0
      ],
      "min": [
        -2.3841900542720396e-07,
        -2.3841900542720396e-07
      ],
      "type": "VEC2"
    },
    {
      "bufferView": 0,
      "componentType": 5125,
      "count": 324,
      "type": "SCALAR"
    },
    {
      "bufferView": 2,
      "byteOffset": 2304,
      "componentType": 5126,
      "count": 35677,
      "max": [
        0.5,
        0.5,
        0.5
      ],
      "min": [
        -0.5,
        -0.5,
        -0.5
      ],
      "type": "VEC3"
    },
    {
      "bufferView": 2,
      "byteOffset": 430428,
      "componentType": 5126,
      "count": 35677,
      "max": [
        0.9999701976776123,
        0.9999793767929077,
        0.9999336004257202
      ],
      "min": [
        -0.9999570250511169,
        -0.9999733567237854,
        -0.9999907612800598
      ],
      "type": "VEC3"
    },
    {
      "bufferView": 1,
      "byteOffset": 768,
      "componentType": 5126,
      "count": 35677,
      "max": [
        0.9821000099182129,
        0.9900000095367432
      ],
      "min": [
        0.009999990463256836,
        0.009999990463256836
      ],
      "type": "VEC2"
    },
    {
      "bufferView": 0,
      "byteOffset": 1296,
      "componentType": 5125,
      "count": 149994,
      "type": "SCALAR"
    }
  ],
  "asset": {
    "extras": {
      "author": "₵ⱤɎ₱₮Ø J₳₵₭ (https://sketchfab.com/oxyplik)",
      "license": "CC-BY-4.0 (http://creativecommons.org/licenses/by/4.0/)",
      "source": "https://sketchfab.com/3d-models/free-3d-model-k-9-dog-e459b06656a446bcaf8ce4d9bfa75a6d",
      "title": "Free 3D Model K-9 Dog"
    },
    "generator": "Sketchfab-15.65.0",
    "version": "2.0"
  },
  "bufferViews": [
    {
      "buffer": 0,
      "byteLength": 601272,
      "name": "floatBufferViews",
      "target": 34963
    },
    {
      "buffer": 0,
      "byteLength": 286184,
      "byteOffset": 601272,
      "byteStride": 8,
      "name": "floatBufferViews",
      "target": 34962
    },
    {
      "buffer": 0,
      "byteLength": 858552,
      "byteOffset": 887456,
      "byteStride": 12,
      "name": "floatBufferViews",
      "target": 34962
    }
  ],
  "buffers": [
    {
      "byteLength": 1746008,
      "uri": "scene.bin"
    }
  ],
  "images": [
    {
      "uri": "textures/Material0-material_baseColor.png"
    }
  ],
  "materials": [
    {
      "doubleSided": true,
      "emissiveFactor": [
        0.48798302448730296,
        0.48798302448730296,
        0.48798302448730296
      ],
      "emissiveTexture": {
        "index": 0
      },
      "name": "Material0-material",
      "pbrMetallicRoughness": {
        "baseColorTexture": {
          "index": 0
        },
        "metallicFactor": 0.19991562616092734,
        "roughnessFactor": 0.6
      }
    },
    {
      "doubleSided": true,
      "name": "Material1-material",
      "pbrMetallicRoughness": {
        "metallicFactor": 0.0,
        "roughnessFactor": 0.6
      }
    }
  ],
  "meshes": [
    {
      "name": "Material1-material",
      "primitives": [
        {
          "attributes": {
            "NORMAL": 1,
            "POSITION": 0,
            "TEXCOORD_0": 2
          },
          "indices": 3,
          "material": 1,
          "mode": 4
        }
      ]
    },
    {
      "name": "Material0-material",
      "primitives": [
        {
          "attributes": {
            "NORMAL": 5,
            "POSITION": 4,
            "TEXCOORD_0": 6
          },
          "indices": 7,
          "material": 0,
          "mode": 4
        }
      ]
    }
  ],
  "nodes": [
    {
      "children": [
        1
      ],
      "matrix": [
        1.0,
        0.0,
        0.0,
        0.0,
        0.0,
        2.220446049250313e-16,
        -1.0,
        0.0,
        0.0,
        1.0,
        2.220446049250313e-16,
        0.0,
        0.0,
        0.0,
        0.0,
        1.0
      ],
      "name": "Sketchfab_model"
    },
    {
      "children": [
        2,
        4
      ],
      "name": "Collada visual scene group"
    },
    {
      "children": [
        3
      ],
      "matrix": [
        0.00987473,
        -0.00154747,
        0.000308201,
        0.0,
        0.00154892,
        0.00987929,
        -2.3433e-05,
        0.0,
        -0.000300855,
        7.08772e-05,
        0.00999522,
        0.0,
        0.0,
        0.0,
        0.0,
        1.0
      ],
      "name": "prim1"
    },
    {
      "mesh": 0,
      "name": "Material1-material"
    },
    {
      "children": [
        5
      ],
      "matrix": [
        1.2574,
        -0.197047,
        0.0392448,
        0.0,
        0.181084,
        1.15499,
        -0.00273955,
        0.0,
        -0.0235547,
        0.00554916,
        0.782552,
        0.0,
        0.00326347,
        -0.141953,
        0.0296822,
        1.0
      ],
      "name": "prim0"
    },
    {
      "mesh": 1,
      "name": "Material0-material"
    }
  ],
  "samplers": [
    {
      "magFilter": 9729,
      "minFilter": 9987,
      "wrapS": 10497,
      "wrapT": 10497
    }
  ],
  "scene": 0,
  "scenes": [
    {
      "name": "Sketchfab_Scene",
      "nodes": [
        0
      ]
    }
  ],
  "textures": [
    {
      "sampler": 0,
      "source": 0
    }
  ]
}
